<?xml version="1.0" encoding="UTF-8" standalone="no"?><!-- Generator: Gravit.io --><svg xmlns="http://www.w3.org/2000/svg" xmlns:xlink="http://www.w3.org/1999/xlink" style="isolation:isolate" viewBox="0 0 1000 1000" width="1000pt" height="1000pt"><defs><clipPath id="_clipPath_gtiDdiJ9JnkOx8UJWhAx5egHdbdGgknA"><rect width="1000" height="1000"/></clipPath></defs><g clip-path="url(#_clipPath_gtiDdiJ9JnkOx8UJWhAx5egHdbdGgknA)"><g style="isolation:isolate"><g><path d="M 549.24 0 L 950.76 0 C 977.936 0 1000 22.064 1000 49.24 L 1000 950.76 C 1000 977.936 977.936 1000 950.76 1000 L 549.24 1000 C 522.064 1000 500 977.936 500 950.76 L 500 49.24 C 500 22.064 522.064 0 549.24 0 Z" style="stroke:none;fill:#4A86E8;stroke-miterlimit:10;"/><path d=" M 682.54 844.828 L 682.54 844.828 C 682.54 873.375 707.078 896.552 737.302 896.552 L 737.302 896.552 L 828.571 896.552 L 828.571 896.552 C 858.795 896.552 883.333 873.375 883.333 844.828 L 883.333 844.828 L 883.333 155.172 L 883.333 155.172 C 883.333 126.625 858.795 103.448 828.571 103.448 L 828.571 103.448 L 700.794 103.448 L 681.513 103.448 C 661.93 103.448 638.594 117.499 629.432 134.806 L 500 379.31 L 500 689.655 L 636.295 471.755 C 662.256 430.249 683.263 436.298 683.176 485.254 L 682.54 844.828 Z " fill="rgb(255,255,255)"/><path d=" M 317.46 844.828 L 317.46 844.828 C 317.46 873.375 292.922 896.552 262.698 896.552 L 262.698 896.552 L 171.429 896.552 L 171.429 896.552 C 141.205 896.552 116.667 873.375 116.667 844.828 L 116.667 844.828 L 116.667 155.172 L 116.667 155.172 C 116.667 126.625 141.205 103.448 171.429 103.448 L 171.429 103.448 L 299.206 103.448 L 318.487 103.448 C 338.07 103.448 361.406 117.499 370.568 134.806 L 500 379.31 L 500 689.655 L 363.705 471.755 C 337.744 430.249 316.737 436.298 316.824 485.254 L 317.46 844.828 Z " fill="rgb(74,134,232)"/><rect x="0" y="0" width="1000" height="1000" transform="matrix(1,0,0,1,0,0)" fill="none"/></g></g></g></svg>